<svg height="512" viewBox="0 0 60 60" width="512" xmlns="http://www.w3.org/2000/svg"><g id="019---Crime-up" fill="none"><path id="Rectangle-path" d="m29 50h10v9h-10z" fill="#ff5364"/><path id="Rectangle-path" d="m39 25h10v21h-10z" fill="#67b9cc"/><path id="Rectangle-path" d="m49 14h10v24h-10z" fill="#f29c1f"/><path id="Shape" d="m39 36v16h-10v-16c0-1.1045695.8954305-2 2-2h6c1.1045695 0 2 .8954305 2 2z" fill="#fb7b76"/><path id="Rectangle-path" d="m39 43h10v16h-10z" fill="#2fa8cc"/><path id="Shape" d="m49 19v9h-10v-9c0-1.1045695.8954305-2 2-2h6c1.1045695 0 2 .8954305 2 2z" fill="#2fa8cc"/><path id="Shape" d="m59 3v13h-10v-13c0-1.1045695.8954305-2 2-2h6c1.1045695 0 2 .8954305 2 2z" fill="#f0c419"/><path id="Rectangle-path" d="m49 36h10v23h-10z" fill="#f0c419"/><path id="Shape" d="m43.71 5.24-5-4.95c-.2021182-.16586698-.4495552-.26693279-.71-.29-.3273984.00831095-.6299783.17641088-.81.45l-4.8 4.79c-.2536586.25365857-.3527235.62337399-.259878.96987804.0928454.34650405.3634959.61715452.71.71.346504.09284548.7162194-.00621947.969878-.25987804l3.08-3.08c-.58 7-3.57 12.19-8.93 15.57-.4188281.3075516-.5323225.8846301-.2611558 1.3278835.2711668.4432534.8366298.6049697 1.3011558.3721165 6-3.82 9.35-9.73 9.89-17.57l3.37 3.38c.1872576.21318844.4562671.3367874.74.34.4298531.02685781.8286144-.22452354.9897423-.6239392s.0484214-.85712772-.2797423-1.1360608z" fill="#a5a5a4"/><path id="Shape" d="m32 45.91c0 5.48-5.81 8-7.27 8.47-2.7730305 1.0954262-5.3758496 2.5803463-7.73 4.41-.2971034.2819072-.7628966.2819072-1.06 0-2.3448972-1.8271919-4.937461-3.3120239-7.7-4.41-1.43-.49-7.24-2.99-7.24-8.47s2.91-6 2.91-10c0-2.64-.85-4-1.43-4.56-.24177976-.2894902-.24177976-.7105098 0-1l4-4.89c.15718066-.1924652.39758267-.2972459.64556799-.2813749.24798533.0158711.47306877.1504429.60443201.3613749.84866502 1.3236834 2.3642413 2.0641176 3.93 1.92 1.6005582.1105688 3.1678578-.4936471 4.28-1.65.1439415-.1568816.3470893-.2461907.56-.2461907s.4160585.0893091.56.2461907c1.1121422 1.1563529 2.6794418 1.7605688 4.28 1.65 1.5657587.1441176 3.081335-.5963166 3.93-1.92.1313632-.210932.3564467-.3455038.604432-.3613749.2479853-.015871.4883873.0889097.645568.2813749l4 4.89c.2417798.2894902.2417798.7105098 0 1-.58.59-1.43 1.92-1.43 4.56 0 4.01 2.91 4.51 2.91 10z" fill="#f0c419"/><ellipse id="Oval" cx="16.5" cy="46" fill="#e57e25" rx="7.5" ry="5"/><path id="Shape" d="m23.21 37c-.3273988-.0016933-.6471684-.0990145-.92-.28-1.7456154-1.071511-3.7425009-1.6647136-5.79-1.72-2.0441897.0672581-4.037265.6558866-5.79 1.71-.4092549.2722309-.91765497.3503447-1.389758.2135311-.47210303-.1368135-.85995986-.4746589-1.060242-.9235311-.51367254-.9401312-.25301154-2.1152423.61-2.75 2.2961105-1.4193883 4.9311269-2.1964246 7.63-2.25 2.7016832.0626048 5.3369038.8500626 7.63 2.28 1.56 1.05.87 3.72-.92 3.72z" fill="#e57e25"/><path id="Shape" d="m59 60h-58c-.55228475 0-1-.4477153-1-1s.44771525-1 1-1h58c.5522847 0 1 .4477153 1 1s-.4477153 1-1 1z" fill="#2c3e50"/></g></svg>