<svg height="512" viewBox="0 0 59 59" width="512" xmlns="http://www.w3.org/2000/svg"><g id="026---Bus-Times" fill="none"><path id="Shape" d="m0 49h8v8c0 1.1045695-.8954305 2-2 2h-4c-1.1045695 0-2-.8954305-2-2z" fill="#2c3e50"/><path id="Shape" d="m32 49h4c1.1045695 0 2 .8954305 2 2v8h-8v-8c0-1.1045695.8954305-2 2-2z" fill="#2c3e50" transform="matrix(-1 0 0 -1 68 108)"/><path id="Shape" d="m38 8.6v41.4h-38v-41.4c-.01744108-1.05622907.52191776-2.04378751 1.42-2.6 8.02-5 17.58-5 17.58-5s9.56 0 17.58 5c.8980822.55621249 1.4374411 1.54377093 1.42 2.6z" fill="#f29c1f"/><path id="Shape" d="m19 1v49h-19v-41.4c-.01744108-1.05622907.52191776-2.04378751 1.42-2.6 8.02-5 17.58-5 17.58-5z" fill="#f0c419"/><rect id="Rectangle-path" fill="#b0d3f0" height="6" rx="2" width="8" x="4" y="39"/><rect id="Rectangle-path" fill="#b0d3f0" height="6" rx="2" transform="matrix(-1 0 0 -1 60 84)" width="8" x="26" y="39"/><path id="Shape" d="m22 42h-6c-.5522847 0-1 .4477153-1 1s.4477153 1 1 1h6c.5522847 0 1-.4477153 1-1s-.4477153-1-1-1z" fill="#fff"/><path id="Shape" d="m34 13.91v18.18c-.0481655 1.0692723-.929644 1.9110843-2 1.91h-26c-1.070356.0010843-1.9518345-.8407277-2-1.91v-18.18c.0481655-1.0692723.929644-1.9110843 2-1.91h26c1.070356-.0010843 1.9518345.8407277 2 1.91z" fill="#90bae1"/><path id="Shape" d="m24 5c.5522847 0 1 .44771525 1 1v2c0 .55228475-.4477153 1-1 1h-10c-.5522847 0-1-.44771525-1-1v-2c0-.55228475.4477153-1 1-1z" fill="#fff"/><path id="Shape" d="m33 12.23c-16.83 1.89-25.87 15.2-28.86 20.55-.2-.47-.14 1-.14-18.87.0481655-1.0692723.929644-1.9110843 2-1.91 28.43 0 26.29-.1 27 .23z" fill="#b0d3f0"/><circle id="Oval" cx="43" cy="16" fill="#ecf0f1" r="15"/><g fill="#556080"><path id="Shape" d="m43 32c-.5522847 0-1-.4477153-1-1v-2c0-.5522847.4477153-1 1-1s1 .4477153 1 1v2c0 .5522847-.4477153 1-1 1z"/><path id="Shape" d="m36.5 5.74c-.3586848.00142401-.690659-.18936581-.87-.5l-1-1.73c-.1786328-.31082106-.1778752-.69333103.0019873-1.0034421s.5115047-.50070999.87-.5.6893799.19262104.8680127.5034421l1 1.73c.1789919.31001652.1786145.69206376-.0009896 1.00172601-.1796041.30966224-.5110351.49969844-.8690104.49827399z"/><path id="Shape" d="m50.5 30c-.3586848.001424-.690659-.1893658-.87-.5l-1-1.73c-.2761424-.4804877-.1104877-1.0938576.37-1.37s1.0938576-.1104877 1.37.37l1 1.73c.1789919.3100165.1786145.6920638-.0009896 1.001726-.1796041.3096623-.5110351.4996985-.8690104.498274z"/><path id="Shape" d="m31.74 10.5c-.36 0-.37-.06-2.23-1.13-.4804877-.27614238-.6461424-.88951227-.37-1.36999999.2761424-.48048773.8895123-.64614237 1.37-.37000001l1.73 1c.3962127.22451811.5906881.688381.4730546 1.12833012-.1176334.43994908-.5176617.74485378-.9730546.74166988z"/><path id="Shape" d="m56 24.5c-.35 0-.34-.05-2.23-1.13-.4804877-.2761424-.6461424-.8895123-.37-1.37s.8895123-.6461424 1.37-.37l1.73 1c.3962127.2245181.5906881.688381.4730546 1.1283301-.1176334.4399491-.5176617.7448538-.9730546.7416699z"/><path id="Shape" d="m30 17h-2c-.5522847 0-1-.4477153-1-1s.4477153-1 1-1h2c.5522847 0 1 .4477153 1 1s-.4477153 1-1 1z"/><path id="Shape" d="m58 17h-2c-.5522847 0-1-.4477153-1-1s.4477153-1 1-1h2c.5522847 0 1 .4477153 1 1s-.4477153 1-1 1z"/><path id="Shape" d="m30 24.5c-.4553929.0031839-.8554212-.3017208-.9730546-.7416699-.1176335-.4399491.0768419-.903812.4730546-1.1283301l1.73-1c.4804877-.2761424 1.0938576-.1104877 1.37.37s.1104877 1.0938576-.37 1.37c-1.84 1.07-1.85 1.13-2.23 1.13z"/><path id="Shape" d="m54.26 10.5c-.4553929.0031839-.8554212-.3017208-.9730546-.74166988-.1176335-.43994912.0768419-.90381201.4730546-1.12833012l1.73-1c.3108211-.17863279.693331-.17787524 1.0034421.0019873s.50071.51150466.5.87c-.00071.35849533-.192621.68937991-.5034421.8680127-1.85 1.07-1.86 1.13-2.23 1.13z"/><path id="Shape" d="m35.5 30c-.3579753.0014245-.6894063-.1886117-.8690104-.498274-.1796041-.3096622-.1799815-.6917095-.0009896-1.001726l1-1.73c.1786328-.3108211.5095174-.5027321.8680127-.5034421s.6901375.1898889.87.5.1806201.692621.0019873 1.0034421l-1 1.73c-.179341.3106342-.5113152.501424-.87.5z"/><path id="Shape" d="m49.5 5.74c-.3579753.00142445-.6894063-.18861175-.8690104-.49827399-.1796041-.30966225-.1799815-.69170949-.0009896-1.00172601l1-1.73c.1786328-.31082106.5095174-.50273211.8680127-.5034421s.6901375.18988893.87.5.1806201.69262104.0019873 1.0034421l-1 1.73c-.179341.31063419-.5113152.50142401-.87.5z"/></g><path id="Shape" d="m43 15c-.5522847 0-1-.4477153-1-1v-8c0-.55228475.4477153-1 1-1s1 .44771525 1 1v8c0 .5522847-.4477153 1-1 1z" fill="#e64c3c"/><path id="Shape" d="m49 23c-.265803.0015368-.5212812-.1028135-.71-.29l-4.59-4.59c-.3921222-.3921222-.3921222-1.0278778 0-1.42s1.0278778-.3921222 1.42 0l4.59 4.59c.2884599.2860905.3751619.7182668.219371 1.0934815-.155791.3752147-.5231059.6188811-.929371.6165185z" fill="#e64c3c"/><path id="Shape" d="m43 4c-.5522847 0-1-.44771525-1-1v-2c0-.55228475.4477153-1 1-1s1 .44771525 1 1v2c0 .55228475-.4477153 1-1 1z" fill="#556080"/><path id="Shape" d="m43 32c-8.836556 0-16-7.163444-16-16s7.163444-16 16-16 16 7.163444 16 16c0 4.2434638-1.6857094 8.3131264-4.6862915 11.3137085s-7.0702447 4.6862915-11.3137085 4.6862915zm0-30c-7.7319865 0-14 6.2680135-14 14s6.2680135 14 14 14 14-6.2680135 14-14-6.2680135-14-14-14z" fill="#2c3e50"/><circle id="Oval" cx="43" cy="16" fill="#2c3e50" r="2"/></g></svg>