<svg height="512" viewBox="0 0 56 60" width="512" xmlns="http://www.w3.org/2000/svg"><g id="005---Radio-Station" fill="none"><g fill="#2c3e50"><path id="Shape" d="m16.22 50.15c-.4322776.0043522-.81841-.2695622-.9571606-.67899-.1387505-.4094279.0012991-.8616595.3471606-1.12101l10.8-8.21-6.32-5.46c-.2173037-.1764269-.3507182-.4358525-.3678233-.7152353s.0836652-.5531463.2778233-.7547647l6.73-6.78-3.32-5.94c-.2761424-.4832492-.1082491-1.0988576.375-1.375.4832492-.2761423 1.0988576-.1082491 1.375.375l3.68 6.61c.2172409.3881093.1520382.8730543-.16 1.19l-6.48 6.57 6.45 5.57c.2365713.1897968.3742205.4767035.3742205.78s-.1376492.5902032-.3742205.78c-12.87 9.73-11.95 9.16-12.43 9.16z"/><path id="Shape" d="m39.78 50.15c-.48 0 .45.58-12.38-9.16-.2365713-.1897968-.3742205-.4767035-.3742205-.78s.1376492-.5902032.3742205-.78l6.45-5.57-6.51-6.55c-.3120382-.3169457-.3772409-.8018907-.16-1.19l3.68-6.61c.2761424-.4832492.8917508-.6511424 1.375-.375s.6511424.8917508.375 1.375l-3.32 5.94 6.71 6.76c.1977203.1975709.3037277.4688757.2923285.7481563-.0113992.2792805-.1391645.5410436-.3523285.7218437l-6.32 5.46 10.8 8.21c.3509911.2624699.4901711.7229065.3433446 1.1358559-.1468264.4129493-.5454402.6821703-.9833446.6641441z"/><path id="Shape" d="m40.8 49.33c-.3313708-.4418278-.9581722-.5313708-1.4-.2l-11.4 8.62-11.4-8.62c-.4418278-.3313708-1.0686292-.2418278-1.4.2s-.2418278 1.0686292.2 1.4c12.82 9.69 12.12 9.27 12.6 9.27s-.25.44 12.6-9.27c.2121732-.1591299.3524422-.3960277.3899495-.6585786.0375073-.262551-.0308196-.5292482-.1899495-.7414214z"/></g><path id="Shape" d="m24.84 7.44-16 48.94c-.19962504.6121344-.09234127 1.2829396.28824364 1.8022795.38058491.5193398.98792176.8236939 1.63175636.8177205h1.72c.8981873.0019213 1.6874909-.5951685 1.93-1.46l13.59-48.54z" fill="#3f5c6c"/><path id="Shape" d="m28 9 13.59 48.54c.2425091.8648315 1.0318127 1.4619213 1.93 1.46h1.72c.6403148-.0004716 1.2416922-.3075031 1.6176011-.8258618.3759089-.5183586.4808967-1.1853674.2823989-1.7941382l-16-48.94z" fill="#3f5c6c"/><path id="Shape" d="m.63 14.37 6.12-6.12c.15031379-.15056185.38060945-.18692433.57-.09 5.85 2.93 5.58 2.89 5.9 2.73l5.78-2.89c.2107079-.11187612.4711036-.0593083.621908.12554873s.1500055.45050462-.001908.63445127l-6.29 7.86c-.1629277.2016038-.4511644.2489262-.67.11-5.83-3.85-5.56-3.73-5.9-3.64l-5.6 2.1c-.21980597.081728-.4668791-.0002891-.59417642-.1972396-.12729731-.1969506-.10061118-.4559096.06417642-.6227604z" fill="#f0c419"/><path id="Shape" d="m55.37 14.37-6.12-6.12c-.1503138-.15056185-.3806094-.18692433-.57-.09-5.85 2.93-5.58 2.89-5.9 2.73l-5.78-2.89c-.2107079-.11187612-.4711036-.0593083-.621908.12554873s-.1500055.45050462.001908.63445127l6.29 7.86c.1629277.2016038.4511644.2489262.67.11 5.79-3.87 5.52-3.79 5.86-3.66l5.6 2.1c.2181104.1001891.4766415.0312581.6159195-.1642198s.1200034-.4623456-.0459195-.6357802z" fill="#f0c419"/><circle id="Oval" cx="28" cy="5" fill="#894b9d" r="5"/></g></svg>