<svg height="512" viewBox="0 0 60 59" width="512" xmlns="http://www.w3.org/2000/svg"><g id="008---Demolition" fill="none" transform="translate(0 -1)"><path id="Shape" d="m44 6v53h-22v-53c0-1.1045695.8954305-2 2-2h18c1.1045695 0 2 .8954305 2 2z" fill="#35495e"/><path id="Shape" d="m60 30v29h-16v-29c0-1.1045695.8954305-2 2-2h12c1.1045695 0 2 .8954305 2 2z" fill="#547580"/><path id="Shape" d="m27 8c0 .55228475-.4477153 1-1 1h-4v-2h4c.5522847 0 1 .44771525 1 1z" fill="#547580"/><path id="Shape" d="m44 7v2h-14c-.5522847 0-1-.44771525-1-1s.4477153-1 1-1z" fill="#547580"/><path id="Shape" d="m48 32c0 .5522847-.4477153 1-1 1h-3v-2h3c.5522847 0 1 .4477153 1 1z" fill="#9fc9d3"/><path id="Shape" d="m60 31v2h-9c-.5522847 0-1-.4477153-1-1s.4477153-1 1-1z" fill="#9fc9d3"/><g fill="#67b9cc"><rect id="Rectangle-path" height="4" rx="1" width="5" x="26" y="12"/><rect id="Rectangle-path" height="4" rx="1" width="5" x="35" y="12"/><rect id="Rectangle-path" height="4" rx="1" width="5" x="26" y="20"/><rect id="Rectangle-path" height="4" rx="1" width="5" x="35" y="20"/><rect id="Rectangle-path" height="4" rx="1" width="5" x="26" y="28"/><rect id="Rectangle-path" height="4" rx="1" width="5" x="35" y="28"/><rect id="Rectangle-path" height="4" rx="1" width="5" x="26" y="36"/><rect id="Rectangle-path" height="4" rx="1" width="5" x="35" y="36"/><rect id="Rectangle-path" height="4" rx="1" width="5" x="26" y="44"/><rect id="Rectangle-path" height="4" rx="1" width="5" x="35" y="44"/></g><rect id="Rectangle-path" fill="#b0d3f0" height="4" rx="1" width="8" x="48" y="36"/><rect id="Rectangle-path" fill="#b0d3f0" height="4" rx="1" width="8" x="48" y="44"/><path id="Shape" d="m27 52h4c.5522847 0 1 .4477153 1 1v6h-6v-6c0-.5522847.4477153-1 1-1z" fill="#67b9cc"/><path id="Shape" d="m49 52h4c.5522847 0 1 .4477153 1 1v6h-6v-6c0-.5522847.4477153-1 1-1z" fill="#b0d3f0"/><path id="Shape" d="m15.22 5.33-11.85 2.23c-.58572654.11026429-1.1901114-.04645042-1.64845795-.42743891-.45834656-.38098848-.72289021-.94654769-.72154205-1.54256109v-2.59c0-1.1045695.8954305-2 2-2h11.81c1.1445896-.02811198 2.1158897.8340053 2.2238187 1.97384164.1079291 1.13983635-.6842948 2.16893857-1.8138187 2.35615836z" fill="#2c3e50"/><path id="Shape" d="m6.78 38.07c-.29541773.0038102-.57740045-.1232063-.77030643-.3469772-.19290598-.223771-.27698891-.5213907-.22969357-.8130228l5.22-33.07c.0571625-.35726559.3005817-.65689678.6385641-.7860254.3379823-.12912863.7191801-.06813697 1 .16.2808198.22813696.4185984.58875981.3614359.9460254l-5.23 33.07c-.07865688.4852851-.49838375.841417-.99.84z" fill="#95a5a5"/><path id="Shape" d="m21 60h-20c-.55228475 0-1-.4477153-1-1v-7c0-.5522847.44771525-1 1-1h20c.5522847 0 1 .4477153 1 1v7c0 .5522847-.4477153 1-1 1zm-19-2h18v-5h-18z" fill="#7f8284"/><path id="Shape" d="m4 53h-3c-.55228475 0-1-.4477153-1-1s.44771525-1 1-1h3c.55228475 0 1 .4477153 1 1s-.44771525 1-1 1z" fill="#7f8284"/><path id="Shape" d="m6 60c-.55228475 0-1-.4477153-1-1v-7c0-.5522847.44771525-1 1-1s1 .4477153 1 1v7c0 .5522847-.44771525 1-1 1z" fill="#7f8284"/><path id="Shape" d="m11 60c-.5522847 0-1-.4477153-1-1v-7c0-.5522847.4477153-1 1-1s1 .4477153 1 1v7c0 .5522847-.4477153 1-1 1z" fill="#7f8284"/><path id="Shape" d="m16 60c-.5522847 0-1-.4477153-1-1v-7c0-.5522847.4477153-1 1-1s1 .4477153 1 1v7c0 .5522847-.4477153 1-1 1z" fill="#7f8284"/><circle id="Oval" cx="6" cy="42" fill="#2c3e50" r="5"/><circle id="Oval" cx="4.5" cy="40.5" fill="#547580" r="1.5"/><path id="Shape" d="m59 60h-58c-.55228475 0-1-.4477153-1-1s.44771525-1 1-1h58c.5522847 0 1 .4477153 1 1s-.4477153 1-1 1z" fill="#2c2f38"/></g></svg>